<svg xmlns="http://www.w3.org/2000/svg" width="206" height="178" fill="none" viewBox="0 0 206 178">
  <path fill="#fff" d="M84 78.1827 80.4578 71 77 78.1827 80.4578 80 84 78.1827Zm-11 0L69.0482 71 65 78.1827 69.0482 80 73 78.1827Zm-11 0L58.0482 71 54 78.1827 58.0482 80 62 78.1827Zm-12 0L46.5 71 43 78.1827 46.5 80l3.5-1.8173Zm-11 0L35.4578 71 32 78.1827 35.4578 80 39 78.1827Zm39-15.4519L74.5422 70 71 62.7308 74.5422 61 78 62.7308Zm-11 0L62.9518 70 59 62.7308 62.9518 61 67 62.7308Zm-11 0L51.9518 70 48 62.7308 51.9518 61 56 62.7308Zm-12 0L40.5422 70 37 62.7308 40.5422 61 44 62.7308Z"/>
  <path fill="#797E18" d="m90.0067 177.987.1544-14.517-5.7158-29.469C101.635 132.501 116 146.732 116 159.679v4.821l13.96 13.487H90.0067Z"/>
  <path fill="#E2CBB5" d="M22.5357 121.965 0 109.554l22.5357-12.4109v24.8219Z"/>
  <path fill="#E2CBB5" d="M22.5357 103.483 0 90.9831l22.5357-12.4108v24.9107Z"/>
  <path fill="#E2CBB5" d="M22.5357 84.9109 0 72.4108 22.5357 60v24.9109Z"/>
  <path fill="#797E18" d="M133.423 104H84V78h49.423l-11.044 8.6069L136 91l-13.621 4.3931L133.423 104Z"/>
  <path fill="#9FA628" d="M35.2547 78.0001c-4.1301 0-7.2547-3.3928-7.2547-7.5 0-4.1071 3.4072-7.5 7.5372-7.5l48.421-.0189V29.2324c0-6.2501-1.6161-11.3394-4.579-15.0894l4.9381-4.41079c1.4366.89289 3.2322 1.42859 5.2972 1.42859.9876 0 1.8855-.8036 1.8855-1.87502 0-1.07144-.8081-1.87501-1.8855-1.87501-3.5913 0-5.5666-2.05359-5.5666-5.53576C84.0479.89286 83.2399 0 82.1625 0c-.9876 0-1.8854.80358-1.8854 1.87501 0 2.05359.5386 3.83932 1.4365 5.2679l-4.9381 4.41079c-3.7709-3.03575-8.7988-4.55362-15.1734-4.55362l-22.2042.01889c-6.2848 0-11.4025 1.60715-15.1734 4.55363l-4.9381-4.4108c.8978-1.42858 1.4365-3.21431 1.4365-5.2679 0-.98215-.808-1.87501-1.8854-1.87501-.9876 0-1.8855.80358-1.8855 1.87501 0 3.57146-2.065 5.53576-5.5665 5.53576-.9877 0-1.8855.80357-1.8855 1.87501 0 1.07143.8081 1.87503 1.8855 1.87503 2.065 0 3.8606-.5357 5.2972-1.4286l4.9381 4.4108c-3.0527 3.75-4.579 8.75-4.579 15.0894V144.823C17.0418 153.574 27.653 154.5 41 160h36.3467c2.065 0 3.6937 1.697 3.6937 3.75L81 178h39.623L107 164.5v-4.821c0-12.947-10.2725-23.893-22.932-25.679v-22.019l48.74.019-10.829-8.678 13.288-4.3754-13.288-4.375 10.774-8.5715-48.7399-.0189v-8l-48.7584.0189Z"/>
  <path fill="#fff" d="M40.1975 54.8229c4.661 0 8.4396-3.7576 8.4396-8.3929 0-4.6353-3.7786-8.3929-8.4396-8.3929-4.6611 0-8.4397 3.7576-8.4397 8.3929 0 4.6353 3.7786 8.3929 8.4397 8.3929Z"/>
  <path fill="#BF6C35" d="M40.2078 51.0704c2.5785 0 4.6688-2.0786 4.6688-4.6428 0-2.5642-2.0903-4.6429-4.6688-4.6429s-4.6687 2.0787-4.6687 4.6429 2.0902 4.6428 4.6687 4.6428Z"/>
  <path fill="#fff" d="M62.5725 54.8229c4.6611 0 8.4396-3.7576 8.4396-8.3929 0-4.6353-3.7785-8.3929-8.4396-8.3929s-8.4397 3.7576-8.4397 8.3929c0 4.6353 3.7786 8.3929 8.4397 8.3929Z"/>
  <path fill="#BF6C35" d="M62.5828 51.0704c2.5785 0 4.6687-2.0786 4.6687-4.6428 0-2.5642-2.0902-4.6429-4.6687-4.6429-2.5785 0-4.6687 2.0787-4.6687 4.6429s2.0902 4.6428 4.6687 4.6428Z"/>
  <path fill="#ABA8AD" d="M147 129c0-1.105-.895-2-2-2-1.104 0-2 .895-2 2v41.466c0 1.9-1.601 3.534-3.68 3.534H130c-1.105 0-2 .895-2 2s.895 2 2 2h9.32c2.269 0 4.334-.976 5.749-2.54 1.386 1.551 3.365 2.54 5.611 2.54H160c1.105 0 2-.895 2-2s-.895-2-2-2h-9.32c-1.927 0-3.68-1.69-3.68-4v-41Z"/>
  <path fill="#663F4C" d="M88.7565 120C86.1884 120 84 121.957 84 124.5v4.5h122v-4.5c0-2.543-2.188-4.5-4.757-4.5H88.7565Z"/>
  <path fill="#BDDFE0" d="m194.504 96.3635 6.765-15.0817c.266-.6-.174-1.2818-.834-1.2818h-22.843c-.66 0-1.109.6727-.834 1.2818l6.765 15.0817L177.999 111h22.283l-5.778-14.6365Z"/>
  <path fill="#8F513D" d="M179.678 120h18.654c2.576 0 4.345-2.564 3.419-4.945L200.284 111H178l-1.759 4.055c-.908 2.39.861 4.945 3.437 4.945Z"/>
  <path fill="#E7F7F7" d="M186.999 96.4118 186.057 80h-4.709l3.767 16.4118L181.44 111h4.559l1-14.5882Z"/>
  <path fill="#B36C58" d="M186 111h-4.675l-1.188 4.077c-.251.855-.155 1.764.27 2.556l1.275 2.367h3.864v-4.5L186 111Z"/>
  <path fill="#ACCDDD" d="M192.887 96.4118 196.66 80h-4.717L191 96.4118 192 111h4.566l-3.679-14.5882Z"/>
  <path fill="#663F4C" d="M196.667 111H192l.463 4.5v4.5h3.857l1.273-2.367c.425-.792.521-1.701.27-2.556L196.667 111Z"/>
  <path fill="#F2AE53" d="M186 104V89h-7.095c-.652 0-1.095.6937-.824 1.3219l2.652 6.1781-2.308 6.225c-.226.609.208 1.275.842 1.275H186Zm6 0V89h7.095c.652 0 1.095.6937.824 1.3219L197.267 96.5l2.308 6.225c.226.609-.208 1.275-.842 1.275H192Z"/>
  <path stroke="#663F4C" stroke-linecap="round" stroke-miterlimit="10" stroke-width="2" d="M178 96h21.999"/>
  <path fill="#663F4C" stroke="#663F4C" stroke-linecap="round" stroke-miterlimit="10" stroke-width="2" d="M189.013 98.183c1.012 0 1.833-.8138 1.833-1.8178s-.821-1.8178-1.833-1.8178c-1.013 0-1.833.8138-1.833 1.8178s.82 1.8178 1.833 1.8178Z"/>
  <path fill="#663F4C" d="M189.01 96.3647c-3.666 2.5-3.666 9.0913-3.666 9.0913l3.666-9.0913Z"/>
  <path stroke="#663F4C" stroke-linecap="round" stroke-miterlimit="10" stroke-width="2" d="M189.01 96.3647c-3.666 2.5-3.666 9.0913-3.666 9.0913"/>
  <path fill="#663F4C" d="M185.349 107.273c1.012 0 1.832-.814 1.832-1.817 0-1.004-.82-1.818-1.832-1.818-1.013 0-1.833.814-1.833 1.818 0 1.003.82 1.817 1.833 1.817Zm3.655-10.9083c3.666 2.5 3.666 7.2723 3.666 7.2723l-3.666-7.2723Z"/>
  <path stroke="#663F4C" stroke-linecap="round" stroke-miterlimit="10" stroke-width="2" d="M189.004 96.3647c3.666 2.5 3.666 7.2723 3.666 7.2723"/>
  <path fill="#663F4C" d="M192.673 105.454c1.012 0 1.833-.814 1.833-1.818s-.821-1.818-1.833-1.818c-1.013 0-1.833.814-1.833 1.818s.82 1.818 1.833 1.818Z"/>
  <path fill="#2A67BC" d="M17.4405 115H10v27.703C10 153.917 19.2141 163 30.5892 163H74v-8.261C74 140.371 62.5 130 47.4611 130H32.434c-4.1873 0-7.553-3.537-7.553-7.665 0-4.048-3.3347-7.335-7.4405-7.335Z"/>
  <path fill="#ABA8AD" fill-rule="evenodd" d="M50.9028 165.797c.1801.522-.097 1.091-.6191 1.271l-21.5275 7.429c-.5221.18-1.0914-.097-1.2715-.62-.1802-.522.097-1.091.6191-1.271l21.5275-7.428c.5221-.181 1.0913.097 1.2715.619Z" clip-rule="evenodd"/>
  <path fill="#ABA8AD" fill-rule="evenodd" d="M32.1722 165.797c.1801-.522.7494-.8 1.2715-.619l21.5275 7.428c.5221.18.7992.749.6191 1.271-.1802.523-.7494.8-1.2715.62l-21.5275-7.429c-.5221-.18-.7993-.749-.6191-1.271Z" clip-rule="evenodd"/>
  <path fill="#663F4C" fill-rule="evenodd" d="M35.1529 163.337c.8778.61 1.1113 1.841.5214 2.749l-7.1696 11.038c-.5899.908-1.7798 1.149-2.6576.539-.8778-.61-1.1113-1.841-.5214-2.749l7.1696-11.038c.5899-.908 1.7798-1.149 2.6576-.539Zm12.6942 0c.8778-.61 2.0677-.369 2.6576.539l7.1696 11.038c.5899.908.3564 2.139-.5214 2.749-.8778.61-2.0677.369-2.6576-.539l-7.1696-11.038c-.5899-.908-.3564-2.139.5214-2.749Z" clip-rule="evenodd"/>
  <path fill="url(#paint0_linear_10076_41411)" stroke="url(#paint1_linear_10076_41411)" stroke-linejoin="round" stroke-miterlimit="10" stroke-width="4" d="m133.117 114.678 15.928-49.0139 24.647-8.1636-19.073 57.1775h-21.502Z"/>
  <path fill="url(#paint2_linear_10076_41411)" fill-rule="evenodd" d="M175.108 56.0878c.534.5358.721 1.3276.481 2.0456l-19.073 57.1776c-.272.816-1.036 1.367-1.897 1.367h-21.502c-.64 0-1.242-.306-1.618-.824-.376-.518-.482-1.185-.284-1.794l15.928-49.0139c.196-.6051.669-1.0805 1.273-1.2805l24.647-8.1636c.719-.238 1.51-.05 2.045.4858Zm-24.474 11.1568L135.87 112.678h17.308l17.354-52.0239-19.898 6.5905Z" clip-rule="evenodd"/>
  <path fill="#fff" d="m149.897 112.864 12.168-38.9988-11.232 2.7857-11.231 36.2131h10.295Z"/>
  <path fill="#D5D3DD" d="M154.188 120h-53.376c-2.1059 0-3.812-1.79-3.812-4v-4h61v4c0 2.21-1.716 4-3.812 4Z"/>
  <path fill="#D5D3DD" d="m181.513 62.0169-15.717 48.6921c-.627 1.96-2.733 3.037-4.699 2.415L157.531 112l18.145-55.6235 3.566 1.1235c1.966.6221 2.898 2.5577 2.271 4.5169Z"/>
  <defs>
    <linearGradient id="paint0_linear_10076_41411" x1="153.268" x2="153.268" y1="112.448" y2="57.1197" gradientUnits="userSpaceOnUse">
      <stop offset=".00475" stop-color="#89BFFF"/>
      <stop offset=".4632" stop-color="#244B8F"/>
      <stop offset="1" stop-color="#150C2A"/>
    </linearGradient>
    <linearGradient id="paint1_linear_10076_41411" x1="153.405" x2="153.405" y1="57.5005" y2="114.678" gradientUnits="userSpaceOnUse">
      <stop stop-color="#D7D3DD"/>
      <stop offset="1" stop-color="#9691A7"/>
    </linearGradient>
    <linearGradient id="paint2_linear_10076_41411" x1="153.405" x2="153.405" y1="57.5005" y2="114.678" gradientUnits="userSpaceOnUse">
      <stop stop-color="#D7D3DD"/>
      <stop offset="1" stop-color="#9691A7"/>
    </linearGradient>
  </defs>
</svg>
